<svg xmlns="http://www.w3.org/2000/svg" viewBox="0 0 342.73 271.33" fill="none" aria-hidden="true">
  <g transform="translate(-126.47 -487.83)">
    <path fill="#00123F" d="M415.26,688.18s-41.85,31.76-113.59,24.54c-66.64-6.71-114.76-7.96-161.76,31.17.56,1.92.25.89.24,1.05,100.08-55.41,195.36,51.15,327.57-4.3l-52.46-52.46Z"/>
    <path fill="#0074FF" d="M300.06,689.92c84.35-104.27,13.11-152.7,13.11-152.7l-185.14-47.98c-.46-.12-.68.53-.25.73,100.86,45.32,90.96,154.6,10.06,251.14.3.22.77.74.77.74,67.45-67.56,161.45-51.93,161.45-51.93Z"/>
  </g>
</svg>
