<?xml version="1.0" encoding="UTF-8"?>
<svg xmlns="http://www.w3.org/2000/svg" version="1.1" viewBox="0 0 595.28 841.89">
  <defs>
    <style>
      .cls-1 {
        fill: #00123f;
      }

      .cls-2 {
        fill: #0074ff;
      }

      .cls-3 {
        fill: #fff;
      }
    </style>
  </defs>
  <!-- Generator: Adobe Illustrator 28.7.1, SVG Export Plug-In . SVG Version: 1.2.0 Build 142)  -->
  <g>
    <g id="Layer_1">
      <rect class="cls-1" x="0" width="595.28" height="420.94"/>
      <g>
        <path class="cls-2" d="M415.26,275.46s-41.85,31.76-113.59,24.54c-66.64-6.71-114.76-7.96-161.76,31.17.56,1.92.25.89.24,1.05,100.08-55.41,195.36,51.15,327.57-4.3l-52.46-52.46Z"/>
        <path class="cls-3" d="M300.06,277.2c84.35-104.27,13.11-152.7,13.11-152.7l-185.14-47.98c-.46-.12-.68.53-.25.73,100.86,45.32,90.96,154.6,10.06,251.14.3.22.77.74.77.74,67.45-67.56,161.45-51.93,161.45-51.93Z"/>
      </g>
      <g>
        <path class="cls-1" d="M415.26,688.18s-41.85,31.76-113.59,24.54c-66.64-6.71-114.76-7.96-161.76,31.17.56,1.92.25.89.24,1.05,100.08-55.41,195.36,51.15,327.57-4.3l-52.46-52.46Z"/>
        <path class="cls-2" d="M300.06,689.92c84.35-104.27,13.11-152.7,13.11-152.7l-185.14-47.98c-.46-.12-.68.53-.25.73,100.86,45.32,90.96,154.6,10.06,251.14.3.22.77.74.77.74,67.45-67.56,161.45-51.93,161.45-51.93Z"/>
      </g>
    </g>
  </g>
</svg>